<?xml version="1.0" encoding="UTF-8" standalone="no"?>
<!-- Generator: Adobe Illustrator 21.0.0, SVG Export Plug-In . SVG Version: 6.00 Build 0)  -->

<svg
   xmlns:dc="http://purl.org/dc/elements/1.1/"
   xmlns:cc="http://creativecommons.org/ns#"
   xmlns:rdf="http://www.w3.org/1999/02/22-rdf-syntax-ns#"
   xmlns:svg="http://www.w3.org/2000/svg"
   xmlns="http://www.w3.org/2000/svg"
   xmlns:sodipodi="http://sodipodi.sourceforge.net/DTD/sodipodi-0.dtd"
   xmlns:inkscape="http://www.inkscape.org/namespaces/inkscape"
   version="1.1"
   id="Ebene_1"
   x="0px"
   y="0px"
   viewBox="0 0 16 16"
   xml:space="preserve"
   inkscape:version="0.48.4 r9939"
   width="100%"
   height="100%"
   sodipodi:docname="categories.svg"><metadata
   id="metadata3199"><rdf:RDF><cc:Work
       rdf:about=""><dc:format>image/svg+xml</dc:format><dc:type
         rdf:resource="http://purl.org/dc/dcmitype/StillImage" /></cc:Work></rdf:RDF></metadata><defs
   id="defs3197" /><sodipodi:namedview
   pagecolor="#ffffff"
   bordercolor="#666666"
   borderopacity="1"
   objecttolerance="10"
   gridtolerance="10"
   guidetolerance="10"
   inkscape:pageopacity="0"
   inkscape:pageshadow="2"
   inkscape:window-width="1920"
   inkscape:window-height="1017"
   id="namedview3195"
   showgrid="false"
   fit-margin-top="0"
   fit-margin-left="0"
   fit-margin-right="0"
   fit-margin-bottom="0"
   inkscape:zoom="7.375"
   inkscape:cx="16"
   inkscape:cy="16"
   inkscape:window-x="-8"
   inkscape:window-y="-8"
   inkscape:window-maximized="1"
   inkscape:current-layer="Ebene_1" />
<style
   type="text/css"
   id="style3189">
	.st0{fill:#00A19A;}
	.st1{fill:#FFFFFF;}
</style>
<path
   class="st0"
   d="M 14.6,16 H 1.4 C 0.65,16 0,15.35 0,14.6 V 1.4 C 0,0.65 0.65,0 1.4,0 H 14.55 C 15.35,0 16,0.65 16,1.4 V 14.55 C 16,15.35 15.35,16 14.6,16 z"
   id="path3191"
   inkscape:connector-curvature="0"
   style="fill:#00a19a" />
<path
   class="st1"
   d="M 11.9,4.95 H 10.5 V 4.8 C 10.5,4 9.85,3.35 9.1,3.35 h -2 C 6.3,3.35 5.7,4 5.7,4.8 V 4.95 H 4.2 C 3.65,4.95 3.15,5.4 3.15,6 v 4.9 c 0,0.55 0.55,1.05 0.95,1.05 0.4,0 7.45,0 7.9,0 0.45,0 0.95,-0.5 0.95,-1.05 V 6 c 0,-0.55 -0.5,-1.05 -1.05,-1.05 z m -1.1,0.9 h 0.75 V 11.2 H 10.8 V 5.85 z M 6.65,5 C 6.65,4.65 6.85,4.25 7.3,4.25 H 8.8 C 9.3,4.25 9.45,4.6 9.45,5 H 6.65 z M 4.55,5.85 H 5.3 V 11.2 H 4.55 V 5.85 z"
   id="path3193"
   inkscape:connector-curvature="0"
   style="fill:#ffffff" />
</svg>