<?xml version="1.0" encoding="utf-8"?>
<!-- Generator: Adobe Illustrator 21.0.0, SVG Export Plug-In . SVG Version: 6.00 Build 0)  -->
<svg version="1.1" id="Ebene_1" xmlns="http://www.w3.org/2000/svg" xmlns:xlink="http://www.w3.org/1999/xlink" x="0px" y="0px"
	 viewBox="0 0 32 32" style="enable-background:new 0 0 32 32;" xml:space="preserve">
<style type="text/css">
	.st0{fill:#00A19A;}
	.st1{fill:#FFFFFF;}
</style>
<path class="st0" d="M29.2,32H2.8C1.3,32,0,30.7,0,29.2V2.8C0,1.3,1.3,0,2.8,0h26.3C30.7,0,32,1.3,32,2.8v26.3
	C32,30.7,30.7,32,29.2,32z"/>
<path class="st1" d="M23.8,9.9h-2.8V9.6c0-1.6-1.3-2.9-2.8-2.9h-4c-1.6,0-2.8,1.3-2.8,2.9v0.3H8.4c-1.1,0-2.1,0.9-2.1,2.1v9.8
	c0,1.1,1.1,2.1,1.9,2.1s14.9,0,15.8,0s1.9-1,1.9-2.1V12C25.9,10.9,24.9,9.9,23.8,9.9z M21.6,11.7h1.5v10.7h-1.5V11.7z M13.3,10
	c0-0.7,0.4-1.5,1.3-1.5h3c1,0,1.3,0.7,1.3,1.5H13.3z M9.1,11.7h1.5v10.7H9.1V11.7z"/>
</svg>
