<?xml version="1.0" encoding="utf-8"?>
<!-- Generator: Adobe Illustrator 21.0.0, SVG Export Plug-In . SVG Version: 6.00 Build 0)  -->
<svg version="1.1" id="Ebene_1" xmlns="http://www.w3.org/2000/svg" xmlns:xlink="http://www.w3.org/1999/xlink" x="0px" y="0px"
	 viewBox="0 0 32 32" style="enable-background:new 0 0 32 32;" xml:space="preserve">
<style type="text/css">
	.st0{fill:#B17F4A;}
	.st1{fill:#FFFFFF;}
</style>
<path class="st0" d="M29.2,32H2.8C1.3,32,0,30.7,0,29.2V2.8C0,1.3,1.3,0,2.8,0h26.3C30.7,0,32,1.3,32,2.8v26.3
	C32,30.7,30.7,32,29.2,32z"/>
<g>
	<g>
		<path class="st1" d="M8.1,11.5C6.4,11.5,5,10.1,5,8.4c0-1.7,1.4-3.1,3.1-3.1c1.7,0,3.1,1.4,3.1,3.1C11.2,10.1,9.8,11.5,8.1,11.5z
			 M8.1,7C7.3,7,6.7,7.6,6.7,8.4c0,0.8,0.6,1.4,1.4,1.4s1.4-0.6,1.4-1.4C9.5,7.6,8.9,7,8.1,7z"/>
	</g>
	<g>
		<path class="st1" d="M16.1,11.5c-1.7,0-3.1-1.4-3.1-3.1c0-1.7,1.4-3.1,3.1-3.1c1.7,0,3.1,1.4,3.1,3.1
			C19.2,10.1,17.8,11.5,16.1,11.5z M16.1,7c-0.8,0-1.4,0.6-1.4,1.4c0,0.8,0.6,1.4,1.4,1.4c0.8,0,1.4-0.6,1.4-1.4
			C17.5,7.6,16.9,7,16.1,7z"/>
	</g>
	<g>
		<path class="st1" d="M23.9,11.5c-1.7,0-3.1-1.4-3.1-3.1c0-1.7,1.4-3.1,3.1-3.1c1.7,0,3.1,1.4,3.1,3.1C27,10.1,25.6,11.5,23.9,11.5
			z M23.9,7c-0.8,0-1.4,0.6-1.4,1.4c0,0.8,0.6,1.4,1.4,1.4s1.4-0.6,1.4-1.4C25.3,7.6,24.7,7,23.9,7z"/>
	</g>
	<g>
		<path class="st1" d="M8.1,27.2c-1.7,0-3.1-1.4-3.1-3.1C5,22.4,6.4,21,8.1,21c1.7,0,3.1,1.4,3.1,3.1C11.2,25.8,9.8,27.2,8.1,27.2z
			 M8.1,22.7c-0.8,0-1.4,0.6-1.4,1.4c0,0.8,0.6,1.4,1.4,1.4s1.4-0.6,1.4-1.4C9.5,23.3,8.9,22.7,8.1,22.7z"/>
	</g>
	<g>
		<path class="st1" d="M16.1,27.2c-1.7,0-3.1-1.4-3.1-3.1c0-1.7,1.4-3.1,3.1-3.1c1.7,0,3.1,1.4,3.1,3.1
			C19.2,25.8,17.8,27.2,16.1,27.2z M16.1,22.7c-0.8,0-1.4,0.6-1.4,1.4c0,0.8,0.6,1.4,1.4,1.4c0.8,0,1.4-0.6,1.4-1.4
			C17.5,23.3,16.9,22.7,16.1,22.7z"/>
	</g>
	<g>
		<path class="st1" d="M23.9,27.2c-1.7,0-3.1-1.4-3.1-3.1c0-1.7,1.4-3.1,3.1-3.1c1.7,0,3.1,1.4,3.1,3.1C27,25.8,25.6,27.2,23.9,27.2
			z M23.9,22.7c-0.8,0-1.4,0.6-1.4,1.4c0,0.8,0.6,1.4,1.4,1.4s1.4-0.6,1.4-1.4C25.3,23.3,24.7,22.7,23.9,22.7z"/>
	</g>
	<g>
		<path class="st1" d="M8.1,19.4C6.4,19.4,5,18,5,16.3c0-1.7,1.4-3.1,3.1-3.1c1.7,0,3.1,1.4,3.1,3.1C11.2,18,9.8,19.4,8.1,19.4z
			 M8.1,14.9c-0.8,0-1.4,0.6-1.4,1.4c0,0.8,0.6,1.4,1.4,1.4s1.4-0.6,1.4-1.4C9.5,15.5,8.9,14.9,8.1,14.9z"/>
	</g>
	<g>
		<path class="st1" d="M23.9,19.4c-1.7,0-3.1-1.4-3.1-3.1c0-1.7,1.4-3.1,3.1-3.1c1.7,0,3.1,1.4,3.1,3.1C27,18,25.6,19.4,23.9,19.4z
			 M23.9,14.9c-0.8,0-1.4,0.6-1.4,1.4c0,0.8,0.6,1.4,1.4,1.4s1.4-0.6,1.4-1.4C25.3,15.5,24.7,14.9,23.9,14.9z"/>
	</g>
	<g>
		<path class="st1" d="M16.1,19.4c-1.7,0-3.1-1.4-3.1-3.1c0-1.7,1.4-3.1,3.1-3.1c1.7,0,3.1,1.4,3.1,3.1C19.2,18,17.8,19.4,16.1,19.4
			z"/>
	</g>
</g>
</svg>
