<?xml version="1.0" encoding="utf-8"?>
<svg version="1.1" id="Ebene_1" xmlns="http://www.w3.org/2000/svg" xmlns:xlink="http://www.w3.org/1999/xlink" x="0px" y="0px" viewBox="0 0 32 32" style="enable-background:new 0 0 32 32;" xml:space="preserve">
<style type="text/css">
	.st0{fill:#FFFFFF;}
</style>
<g>
	<circle class="st0" cx="13" cy="25.4" r="2.3"/>
	<circle class="st0" cx="21.8" cy="25.4" r="2.3"/>
	<path class="st0" d="M27.3,4.9h-2.5c-0.3,0-0.6,0.2-0.7,0.4c-0.1,0.3,0,0.6,0.2,0.8L25,6.9l-3.4,3.4L9.8,9c-0.1,0-0.1,0-0.2,0L9,6
		C8.9,5.7,8.7,5.4,8.4,5.3L5.2,4.4C4.7,4.3,4.2,4.6,4.1,5C4,5.5,4.2,6,4.7,6.1l2.6,0.8l3,14.1c0.1,0.4,0.5,0.7,0.9,0.7l12.5,0
		c0,0,0,0,0,0c0.5,0,0.9-0.4,0.9-0.9c0-0.5-0.4-0.9-0.9-0.9l-11.8,0l-0.4-1.8l13.1,0c0.4,0,0.8-0.3,0.8-0.7l1.2-6.6l-3-0.3L26.1,8
		l0.7,0.7c0.1,0.1,0.3,0.2,0.5,0.2c0.1,0,0.2,0,0.3-0.1c0.3-0.1,0.4-0.4,0.4-0.7V5.7C28.1,5.3,27.7,4.9,27.3,4.9z M19.7,14.4
		c-0.3,0.3-0.8,0.3-1.1,0l-1.7-1.7L13,16.4c-0.2,0.2-0.4,0.2-0.6,0.2c-0.2,0-0.4-0.1-0.6-0.2c-0.3-0.3-0.3-0.8,0-1.1l4.4-4.4
		c0.3-0.3,0.8-0.3,1.1,0l1.7,1.7l2.4-2.4l2.1,0.2L19.7,14.4z"/>
</g>
</svg>
