<?xml version="1.0" encoding="utf-8"?>
<!-- Generator: Adobe Illustrator 21.0.0, SVG Export Plug-In . SVG Version: 6.00 Build 0)  -->
<svg version="1.1" id="Ebene_1" xmlns="http://www.w3.org/2000/svg" xmlns:xlink="http://www.w3.org/1999/xlink" x="0px" y="0px"
	 viewBox="0 0 32 32" style="enable-background:new 0 0 32 32;" xml:space="preserve">
<style type="text/css">
	.st0{fill:#DEDC00;}
	.st1{fill:#FFFFFF;}
</style>
<path class="st0" d="M29.2,32H2.8C1.3,32,0,30.7,0,29.2V2.8C0,1.3,1.3,0,2.8,0h26.3C30.7,0,32,1.3,32,2.8v26.3
	C32,30.7,30.7,32,29.2,32z"/>
<path class="st1" d="M16.6,19.3V22h-1.8v-2.6c-0.4-0.3-0.7-0.8-0.7-1.3c0-0.9,0.7-1.6,1.6-1.6c0.9,0,1.6,0.7,1.6,1.6
	C17.3,18.6,17,19,16.6,19.3z M18.7,13.9h-5.8v-1.5c0-1.8,1.3-2.9,2.9-2.9c1.4,0,2.6,0.8,2.8,2.2c0,0.2,0.1,0.4,0.1,0.7l2.1-0.1
	c0-0.5-0.1-0.9-0.2-1.4c-0.6-2.1-2.4-3.6-4.9-3.6c-3,0-5.1,2-5.1,4.9c0,0,0,0.8,0,1.6c-0.8,0-1.4,0.7-1.4,1.4V23
	c0,0.8,0.7,1.4,1.5,1.4h10c0.8,0,1.5-0.6,1.5-1.4v-7.7c0-0.7-0.6-1.4-1.4-1.4L18.7,13.9z"/>
</svg>
